<svg id="_x33_0" enable-background="new 0 0 64 64" height="512" viewBox="0 0 64 64" width="512" xmlns="http://www.w3.org/2000/svg"><g><path fill="#e1e1e1" d="m47 8.171v-7.171h-6v4h-2v-4h-6v4h-2v-4h-6v4h-2v-4h-6v7.171c0 .801.313 1.555.879 2.122l.013.013-.892 3.571v34.123c0 8.271 6.729 15 15 15s15-6.729 15-15v-34l-.899-3.687.02-.02c.567-.566.879-1.32.879-2.122zm-28-5.171h2v4h6v-4h2v4h6v-4h2v4h6v-4h2v5.171c0 .267-.104.519-.293.708l-.121.121h-25.172l-.121-.121c-.189-.189-.293-.441-.293-.708zm2 32h-2v-20h3.08l.466 5.581c.299 3.6 3.363 6.419 6.975 6.419h4.959c3.611 0 6.676-2.819 6.975-6.419l.465-5.581h3.08v20h-2c-1.103 0-2 .897-2 2v11c0 4.962-4.037 9-9 9s-9-4.038-9-9v-11c0-1.103-.897-2-2-2zm3.086-20h15.827l-.452 5.415c-.214 2.571-2.401 4.585-4.982 4.585h-4.959c-2.58 0-4.768-2.014-4.982-4.585zm-4.805-2 .5-2h24.438l.5 2zm12.719 48c-7.168 0-13-5.832-13-13v-11h2v11c0 6.065 4.935 11 11 11s11-4.935 11-11v-11h2v11c0 7.168-5.832 13-13 13z"/><path d="m32 47c2.757 0 5-2.243 5-5v-8c0-2.757-2.243-5-5-5s-5 2.243-5 5v8c0 2.757 2.243 5 5 5zm0-2c-1.654 0-3-1.346-3-3v-3h6v3c0 1.654-1.346 3-3 3zm0-14c1.654 0 3 1.346 3 3v3h-6v-3c0-1.654 1.346-3 3-3z"/><path d="m31 49h2v2h-2z"/><path d="m31 53h2v2h-2z"/><path d="m31 33h2v2h-2z"/></g></svg>