<svg height="512" viewBox="0 0 512 512" width="512" xmlns="http://www.w3.org/2000/svg"><g id="Outline"><path fill="#e1e1e1" d="m389.422 106.579h16v16h-16z" transform="matrix(.707 -.707 .707 .707 35.383 314.579)"/><path fill="#e1e1e1" d="m366.794 129.206h16v16h-16z" transform="matrix(.707 -.707 .707 .707 12.755 305.206)"/><path fill="#e1e1e1" d="m344.167 151.834h16v16h-16z" transform="matrix(.707 -.707 .707 .707 -9.872 295.833)"/><path fill="#e1e1e1" d="m321.539 174.461h16v16h-16z" transform="matrix(.707 -.707 .707 .707 -32.5 286.461)"/><path fill="#e1e1e1" d="m298.912 197.089h16v16h-16z" transform="matrix(.707 -.707 .707 .707 -55.127 277.088)"/><path fill="#e1e1e1" d="m276.284 219.716h16v16h-16z" transform="matrix(.707 -.707 .707 .707 -77.754 267.716)"/><path fill="#e1e1e1" d="m253.657 242.343h16v16h-16z" transform="matrix(.707 -.707 .707 .707 -100.382 258.343)"/><path fill="#e1e1e1" d="m459.646 120.235a32.033 32.033 0 0 0 0-45.254l-22.627-22.627a32.036 32.036 0 0 0 -45.254 0l-5.658-5.654a8 8 0 0 0 -11.313 0l-16.971 16.967-16.97-16.967-11.314 11.31 16.971 16.971-11.31 11.313-16.971-16.97-11.317 11.313 16.97 16.971-11.314 11.314-16.968-16.971-11.314 11.314 16.971 16.97-11.314 11.314-16.971-16.97-11.313 11.313 16.971 16.971-11.314 11.314-16.971-16.971-11.315 11.314 16.97 16.97-11.314 11.31-16.97-16.971-11.316 11.318 16.971 16.971-11.314 11.314-16.971-16.971-11.313 11.313 16.971 16.971-16.971 16.971a7.959 7.959 0 0 0 -2.187 4.088v.024l-.006.03-10.832 54.142-122.738 122.735a24 24 0 0 0 0 33.941l11.314 11.314a24 24 0 0 0 33.941 0l122.735-122.738 54.141-10.829h.025l.027-.006a7.959 7.959 0 0 0 4.088-2.187l16.971-16.971 16.971 16.971 11.313-11.313-16.971-16.971 11.314-11.314 16.974 16.968 11.314-11.314-16.967-16.972 11.31-11.314 16.97 16.97 11.314-11.313-16.971-16.971 11.314-11.314 16.971 16.971 11.313-11.313-16.97-16.971 11.314-11.314 16.97 16.971 11.314-11.316-16.971-16.97 11.314-11.314 16.971 16.97 11.313-11.313-16.97-16.973 11.313-11.314 16.971 16.971 11.31-11.31-16.971-16.97 16.971-16.971a8 8 0 0 0 0-11.313zm-33.94-56.568 22.627 22.627a16.02 16.02 0 0 1 0 22.628l-45.255-45.255a16.02 16.02 0 0 1 22.628 0zm-228.906 223.645 7.543-37.713 58.057 58.056-37.712 7.545zm-8.684 13.942 22.628 22.628-11.312 11.318-22.632-22.632zm-96.165 141.422a8 8 0 0 1 -11.314 0l-11.313-11.313a8 8 0 0 1 0-11.314l96.166-96.167 22.628 22.628zm345.069-299.813-16.971-16.97-11.314 11.313 16.971 16.971-11.314 11.314-16.971-16.971-11.313 11.313 16.971 16.967-11.314 11.314-16.971-16.971-11.314 11.318 16.971 16.971-11.314 11.313-16.97-16.97-11.314 11.313 16.971 16.971-11.314 11.314-16.971-16.973-11.313 11.314 16.97 16.97-11.314 11.316-16.97-16.97-11.312 11.313 16.971 16.971-11.314 11.314-16.971-16.971-11.315 11.313 16.97 16.971-11.314 11.314-67.882-67.882 11.314-11.314 16.971 16.97 11.313-11.313-16.971-16.971 11.314-11.314 16.971 16.969 11.313-11.314-16.97-16.968 11.314-11.318 16.97 16.97 11.316-11.309-16.973-16.971 11.314-11.314 16.971 16.971 11.313-11.314-16.97-16.97 11.313-11.314 16.971 16.971 11.314-11.314-16.971-16.971 11.318-11.314 16.971 16.971 11.313-11.313-16.975-16.971 11.314-11.314 16.971 16.971 11.313-11.314-16.97-16.971 11.314-11.313 67.882 67.882z"/></g></svg>