<?xml version="1.0"?>
<svg xmlns="http://www.w3.org/2000/svg" id="Outline" viewBox="0 0 512 512" width="512" height="512"><path fill="#e1e1e1" d="M488,16H408a8,8,0,0,0-8,8V57.572C358.621,30.674,308.092,16,256,16S153.379,30.674,112,57.572V24a8,8,0,0,0-8-8H24a8,8,0,0,0-8,8V272.446a40.2,40.2,0,0,0,4.223,17.889L74.99,399.87a33.028,33.028,0,0,0,44.5,14.7c15.558,22.321,34.635,41.3,55.666,55.285C200.87,486.959,228.827,496,256,496s55.13-9.041,80.849-26.146c21.031-13.987,40.108-32.964,55.665-55.284a32.789,32.789,0,0,0,14.888,3.574,33.234,33.234,0,0,0,7.141-.778,32.9,32.9,0,0,0,22.466-17.5l54.768-109.535A40.2,40.2,0,0,0,496,272.446V24A8,8,0,0,0,488,16ZM370.7,176.237c-22.931-15.7-51.358-26.026-82.8-30.173,13.174-10.378,24.484-24.047,30.45-31.852,19.9-26.031,29.514-48.649,32.544-64.118A231.275,231.275,0,0,1,400,76.96v47.727l-1.373,1.372A103.888,103.888,0,0,0,370.7,176.237ZM256,32a257.273,257.273,0,0,1,79.667,12.56C333.6,59.774,322.06,83.019,305.644,104.5,287.583,128.124,267.632,144,256,144c-44.048,0-84.229,11.376-114.7,32.237a103.878,103.878,0,0,0-27.924-50.178L112,124.687V76.96C152.286,47.943,203.249,32,256,32ZM100.889,401.738A16.966,16.966,0,0,1,89.3,392.714L34.534,283.179A24.117,24.117,0,0,1,32,272.446V32H96v96a8,8,0,0,0,2.343,5.657l3.716,3.716A87.991,87.991,0,0,1,128,200v80a16,16,0,0,1-32,0V224a8,8,0,0,0-16,0v72a7.994,7.994,0,0,0,.845,3.578l38.946,77.892a17.044,17.044,0,0,1-18.9,24.268ZM256,480c-45.151,0-92.142-28.927-124.369-76.021a33.245,33.245,0,0,0,2.47-33.666l-29.6-59.2A32.012,32.012,0,0,0,144,280V200c0-1.954-.059-3.9-.165-5.834C172.235,172.109,211.9,160,256,160s83.765,12.109,112.165,34.166c-.106,1.936-.165,3.88-.165,5.834v80a32.012,32.012,0,0,0,39.5,31.112l-29.6,59.2a33.245,33.245,0,0,0,2.47,33.666C348.142,451.073,301.151,480,256,480ZM480,272.446a24.117,24.117,0,0,1-2.534,10.733L422.7,392.714a17.044,17.044,0,0,1-30.49-15.244l38.946-77.892A7.994,7.994,0,0,0,432,296V224a8,8,0,0,0-16,0v56a16,16,0,0,1-32,0V200a87.989,87.989,0,0,1,25.941-62.627l3.716-3.716A8,8,0,0,0,416,128V32h64Z"/><path fill="#e1e1e1" d="M208,296a8,8,0,0,0-16,0,8,8,0,0,1-16,0,8,8,0,0,0-16,0,24,24,0,0,0,48,0Z"/><path fill="#e1e1e1" d="M344,288a8,8,0,0,0-8,8,8,8,0,0,1-16,0,8,8,0,0,0-16,0,24,24,0,0,0,48,0A8,8,0,0,0,344,288Z"/><path fill="#e1e1e1" d="M315.207,368.671a8,8,0,0,0-10.536,4.122C304.552,373.065,292.348,400,256,400c-35.867,0-48.13-26.017-48.687-27.242a8,8,0,0,0-14.642,6.449C193.328,380.709,209.305,416,256,416s62.672-35.291,63.329-36.793A8,8,0,0,0,315.207,368.671Z"/><path fill="#e1e1e1" d="M240,352h32a8,8,0,0,0,0-16H248V312a8,8,0,0,0-16,0v32A8,8,0,0,0,240,352Z"/></svg>
