<?xml version="1.0" encoding="iso-8859-1"?>
<!-- Generator: Adobe Illustrator 19.0.0, SVG Export Plug-In . SVG Version: 6.00 Build 0)  -->
<svg version="1.1" id="Capa_1" xmlns="http://www.w3.org/2000/svg" xmlns:xlink="http://www.w3.org/1999/xlink" x="0px" y="0px"
	 viewBox="0 0 402.658 402.658" style="enable-background:new 0 0 402.658 402.658;" xml:space="preserve">
<g>
	<g>
		<path fill="#e1e1e1" d="M326.636,333.316l-0.04-0.04c-2.774-20.41-21.544-34.724-41.96-32c-20.427,2.774-34.748,21.569-32,42
			c2.774,20.427,21.569,34.748,42,32C315.046,372.501,329.36,353.732,326.636,333.316z M305.836,350.596v0.08
			c-3.147,4.254-7.822,7.122-13.04,8h-1.08c-10.933,1.147-20.828-6.525-22.44-17.4c0.023-0.36,0.023-0.72,0-1.08
			c-1.14-10.812,6.352-20.637,17.08-22.4h1.08c10.812-1.14,20.637,6.351,22.4,17.08c-0.023,0.36-0.023,0.72,0,1.08
			C310.431,341.168,308.999,346.41,305.836,350.596z"/>
	</g>
</g>
<g>
	<g>
		<path fill="#e1e1e1" d="M353.276,329.596c-4.763-35.215-37.135-59.928-72.36-55.24c-2.383,0.322-4.747,0.776-7.08,1.36h-0.32l-40-61.92
			l85.84-201.88c1.875-4.268-0.065-9.247-4.333-11.122c-3.783-1.662-8.213-0.341-10.467,3.122l-103.28,159.92l-103.28-160
			c-2.544-3.906-7.772-5.011-11.678-2.467c-3.463,2.255-4.784,6.685-3.122,10.467l85.8,202l-40,61.92h-0.32
			c-34.524-8.642-69.517,12.339-78.159,46.863c-0.517,2.064-0.931,4.152-1.241,6.257c-0.038,0.466-0.038,0.934,0,1.4
			c-4.336,34.7,19.813,66.52,54.4,71.68c0.466,0.038,0.934,0.038,1.4,0c34.761,4.281,66.576-19.985,71.64-54.64
			c0.039-0.466,0.039-0.934,0-1.4c2.169-17.458-2.921-35.04-14.08-48.64c3.752-6.758,8.018-13.217,12.76-19.32
			c5.14-6.658,11.047-12.686,17.6-17.96c1.705-1.261,3.481-2.423,5.32-3.48c1.2-0.72,2.4-1.44,3.44-2.16
			c10.2,6.2,24.52,18.6,38.12,42.92c-11.341,13.652-16.525,31.389-14.32,49c-0.038,0.466-0.038,0.934,0,1.4
			c5.141,34.626,36.984,58.814,71.72,54.48c0.466,0.038,0.934,0.038,1.4,0C333.721,397.079,358.104,364.676,353.276,329.596z
			 M265.276,95.516l-42.8,101.16l-11.16-17.28L265.276,95.516z M182.476,246.596c-7.58,6.11-14.413,13.091-20.36,20.8
			c-6.57,8.461-12.341,17.513-17.24,27.04c-1.801,3.46-1.008,7.703,1.92,10.28c10.45,10.519,15.391,25.313,13.36,40
			c-3.618,25.957-27.552,44.095-53.52,40.56c-26.002-3.52-44.241-27.433-40.76-53.44c3.519-26.02,27.458-44.265,53.48-40.76
			c1.764,0.237,3.513,0.571,5.24,1c1.721,0.425,3.417,0.945,5.08,1.56c3.72,1.379,7.899-0.019,10.04-3.36l37.24-57.68l4.32,10.52
			h1.96L182.476,246.596z M327.156,367.116l0.2-0.12c-7.633,10.031-18.946,16.609-31.44,18.28
			c-25.994,3.508-49.921-14.693-53.48-40.68c-2.031-14.687,2.91-29.481,13.36-40c2.928-2.577,3.721-6.82,1.92-10.28
			c-23.24-44.52-51.4-57.88-62.32-61.56l-6.4-15.04l-2.8-6.6l-48.92-115.6l125.52,194.8c2.141,3.341,6.32,4.739,10.04,3.36
			c1.663-0.614,3.359-1.135,5.08-1.56c1.727-0.429,3.476-0.762,5.24-1c26.044-3.416,49.925,14.928,53.341,40.971
			C338.13,344.538,334.772,357.131,327.156,367.116z"/>
	</g>
</g>
<g>
	<g>
		<circle cx="203.916" cy="221.956" r="7.8"/>
	</g>
</g>
<g>
	<g>
		<path fill="#e1e1e1" d="M117.996,301.276c-20.445-2.772-39.267,11.555-42.04,32c-2.748,20.431,11.573,39.226,32,42
			c20.528,2.087,38.86-12.862,40.947-33.39C150.892,322.325,137.379,304.571,117.996,301.276z M133.276,340.916
			c-1.476,11-11.445,18.822-22.48,17.64h-1.08c-10.74-1.744-18.241-11.582-17.08-22.4c0.023-0.36,0.023-0.72,0-1.08
			c1.613-11.222,12.018-19.013,23.24-17.4S134.889,329.693,133.276,340.916z"/>
	</g>
</g>
<g>
</g>
<g>
</g>
<g>
</g>
<g>
</g>
<g>
</g>
<g>
</g>
<g>
</g>
<g>
</g>
<g>
</g>
<g>
</g>
<g>
</g>
<g>
</g>
<g>
</g>
<g>
</g>
<g>
</g>
</svg>
